<svg xmlns="http://www.w3.org/2000/svg" xmlns:xlink="http://www.w3.org/1999/xlink" width="2000" zoomAndPan="magnify" viewBox="0 0 1500 1499.999933" height="2000" preserveAspectRatio="xMidYMid meet" version="1.0"><defs><g/><clipPath id="e373a6d822"><path d="M 493.238281 410.847656 L 1006.988281 410.847656 L 1006.988281 931.347656 L 493.238281 931.347656 Z M 493.238281 410.847656 " clip-rule="nonzero"/></clipPath><clipPath id="a309086825"><rect x="0" width="320" y="0" height="170"/></clipPath><clipPath id="c4359f8661"><rect x="0" width="230" y="0" height="73"/></clipPath><clipPath id="1d8779f97e"><rect x="0" width="440" y="0" height="169"/></clipPath></defs><g clip-path="url(#e373a6d822)"><path fill="#000000" d="M 861.222656 487.640625 L 570.457031 487.640625 L 570.457031 633.019531 L 493.398438 633.019531 L 493.398438 410.847656 L 861.222656 410.847656 Z M 783.902344 931.472656 L 860.695312 931.472656 L 860.695312 701.351562 L 783.902344 701.351562 Z M 929.542969 555.960938 L 638.777344 555.960938 L 638.777344 931.472656 L 715.570312 931.472656 L 715.570312 633.019531 L 1006.601562 633.019531 L 1006.601562 410.847656 L 929.542969 410.847656 Z M 929.542969 555.960938 " fill-opacity="1" fill-rule="nonzero"/></g><g transform="matrix(1, 0, 0, 1, 590, 951)"><g clip-path="url(#a309086825)"><g fill="#07435a" fill-opacity="1"><g transform="translate(1.796857, 123.855473)"><g><path d="M 68.34375 -84.625 L 68.34375 -68.109375 L 45.921875 -68.109375 L 45.921875 0 L 25.3125 0 L 25.3125 -68.109375 L 2.890625 -68.109375 L 2.890625 -84.625 Z M 68.34375 -84.625 "/></g></g></g><g fill="#07435a" fill-opacity="1"><g transform="translate(73.021582, 123.855473)"><g><path d="M 28.09375 -68.109375 L 28.09375 -50.984375 L 55.6875 -50.984375 L 55.6875 -35.078125 L 28.09375 -35.078125 L 28.09375 -16.515625 L 59.3125 -16.515625 L 59.3125 0 L 7.46875 0 L 7.46875 -84.625 L 59.3125 -84.625 L 59.3125 -68.109375 Z M 28.09375 -68.109375 "/></g></g></g><g fill="#07435a" fill-opacity="1"><g transform="translate(138.22049, 123.855473)"><g><path d="M 3.984375 -42.4375 C 3.984375 -50.789062 5.789062 -58.242188 9.40625 -64.796875 C 13.019531 -71.347656 18.0625 -76.453125 24.53125 -80.109375 C 31 -83.765625 38.332031 -85.59375 46.53125 -85.59375 C 56.570312 -85.59375 65.171875 -82.9375 72.328125 -77.625 C 79.484375 -72.320312 84.265625 -65.09375 86.671875 -55.9375 L 64.015625 -55.9375 C 62.328125 -59.46875 59.9375 -62.15625 56.84375 -64 C 53.75 -65.851562 50.234375 -66.78125 46.296875 -66.78125 C 39.941406 -66.78125 34.796875 -64.566406 30.859375 -60.140625 C 26.921875 -55.722656 24.953125 -49.820312 24.953125 -42.4375 C 24.953125 -35.039062 26.921875 -29.128906 30.859375 -24.703125 C 34.796875 -20.285156 39.941406 -18.078125 46.296875 -18.078125 C 50.234375 -18.078125 53.75 -19 56.84375 -20.84375 C 59.9375 -22.695312 62.328125 -25.394531 64.015625 -28.9375 L 86.671875 -28.9375 C 84.265625 -19.769531 79.484375 -12.550781 72.328125 -7.28125 C 65.171875 -2.019531 56.570312 0.609375 46.53125 0.609375 C 38.332031 0.609375 31 -1.21875 24.53125 -4.875 C 18.0625 -8.53125 13.019531 -13.613281 9.40625 -20.125 C 5.789062 -26.632812 3.984375 -34.070312 3.984375 -42.4375 Z M 3.984375 -42.4375 "/></g></g></g><g fill="#07435a" fill-opacity="1"><g transform="translate(230.053368, 123.855473)"><g><path d="M 80.765625 -84.625 L 80.765625 0 L 60.15625 0 L 60.15625 -34.84375 L 28.09375 -34.84375 L 28.09375 0 L 7.46875 0 L 7.46875 -84.625 L 28.09375 -84.625 L 28.09375 -51.46875 L 60.15625 -51.46875 L 60.15625 -84.625 Z M 80.765625 -84.625 "/></g></g></g></g></g><g transform="matrix(1, 0, 0, 1, 648, 1070)"><g clip-path="url(#c4359f8661)"><g fill="#07435a" fill-opacity="1"><g transform="translate(1.154245, 54.298516)"><g><path d="M 48.484375 -35.453125 L 38.203125 0 L 33.015625 0 L 24.78125 -28.546875 L 16.234375 0 L 11.09375 0.046875 L 1.171875 -35.453125 L 6.109375 -35.453125 L 13.84375 -5.390625 L 22.390625 -35.453125 L 27.578125 -35.453125 L 35.71875 -5.5 L 43.5 -35.453125 Z M 48.484375 -35.453125 "/></g></g></g><g fill="#07435a" fill-opacity="1"><g transform="translate(76.388338, 54.298516)"><g><path d="M 8.546875 -35.453125 L 8.546875 0 L 3.921875 0 L 3.921875 -35.453125 Z M 8.546875 -35.453125 "/></g></g></g><g fill="#07435a" fill-opacity="1"><g transform="translate(114.494872, 54.298516)"><g><path d="M 25.75 -35.453125 L 25.75 -31.6875 L 16.078125 -31.6875 L 16.078125 0 L 11.453125 0 L 11.453125 -31.6875 L 1.734375 -31.6875 L 1.734375 -35.453125 Z M 25.75 -35.453125 "/></g></g></g><g fill="#07435a" fill-opacity="1"><g transform="translate(167.604974, 54.298516)"><g><path d="M 31.234375 -35.453125 L 31.234375 0 L 26.609375 0 L 26.609375 -16.078125 L 8.546875 -16.078125 L 8.546875 0 L 3.921875 0 L 3.921875 -35.453125 L 8.546875 -35.453125 L 8.546875 -19.890625 L 26.609375 -19.890625 L 26.609375 -35.453125 Z M 31.234375 -35.453125 "/></g></g></g></g></g><g transform="matrix(1, 0, 0, 1, 530, 1095)"><g clip-path="url(#1d8779f97e)"><g fill="#07435a" fill-opacity="1"><g transform="translate(1.609363, 123.741555)"><g><path d="M 50.625 0 L 33.03125 -31.9375 L 28.09375 -31.9375 L 28.09375 0 L 7.46875 0 L 7.46875 -84.625 L 42.078125 -84.625 C 48.742188 -84.625 54.425781 -83.457031 59.125 -81.125 C 63.832031 -78.789062 67.347656 -75.59375 69.671875 -71.53125 C 72.003906 -67.476562 73.171875 -62.960938 73.171875 -57.984375 C 73.171875 -52.359375 71.582031 -47.332031 68.40625 -42.90625 C 65.238281 -38.488281 60.554688 -35.359375 54.359375 -33.515625 L 73.890625 0 Z M 28.09375 -46.53125 L 40.859375 -46.53125 C 44.640625 -46.53125 47.472656 -47.453125 49.359375 -49.296875 C 51.253906 -51.148438 52.203125 -53.765625 52.203125 -57.140625 C 52.203125 -60.359375 51.253906 -62.890625 49.359375 -64.734375 C 47.472656 -66.578125 44.640625 -67.5 40.859375 -67.5 L 28.09375 -67.5 Z M 28.09375 -46.53125 "/></g></g></g><g fill="#07435a" fill-opacity="1"><g transform="translate(80.185497, 123.741555)"><g><path d="M 47.5 0.84375 C 39.539062 0.84375 32.242188 -1.003906 25.609375 -4.703125 C 18.984375 -8.398438 13.722656 -13.5625 9.828125 -20.1875 C 5.929688 -26.820312 3.984375 -34.273438 3.984375 -42.546875 C 3.984375 -50.828125 5.929688 -58.257812 9.828125 -64.84375 C 13.722656 -71.4375 18.984375 -76.582031 25.609375 -80.28125 C 32.242188 -83.976562 39.539062 -85.828125 47.5 -85.828125 C 55.445312 -85.828125 62.734375 -83.976562 69.359375 -80.28125 C 75.992188 -76.582031 81.21875 -71.4375 85.03125 -64.84375 C 88.851562 -58.257812 90.765625 -50.828125 90.765625 -42.546875 C 90.765625 -34.273438 88.835938 -26.820312 84.984375 -20.1875 C 81.128906 -13.5625 75.90625 -8.398438 69.3125 -4.703125 C 62.71875 -1.003906 55.445312 0.84375 47.5 0.84375 Z M 47.5 -17.96875 C 54.25 -17.96875 59.648438 -20.21875 63.703125 -24.71875 C 67.765625 -29.21875 69.796875 -35.160156 69.796875 -42.546875 C 69.796875 -50.023438 67.765625 -55.992188 63.703125 -60.453125 C 59.648438 -64.910156 54.25 -67.140625 47.5 -67.140625 C 40.664062 -67.140625 35.21875 -64.929688 31.15625 -60.515625 C 27.101562 -56.097656 25.078125 -50.109375 25.078125 -42.546875 C 25.078125 -35.078125 27.101562 -29.113281 31.15625 -24.65625 C 35.21875 -20.195312 40.664062 -17.96875 47.5 -17.96875 Z M 47.5 -17.96875 "/></g></g></g><g fill="#07435a" fill-opacity="1"><g transform="translate(174.910756, 123.741555)"><g><path d="M 83.171875 0 L 62.5625 0 L 28.09375 -52.203125 L 28.09375 0 L 7.46875 0 L 7.46875 -84.625 L 28.09375 -84.625 L 62.5625 -32.1875 L 62.5625 -84.625 L 83.171875 -84.625 Z M 83.171875 0 "/></g></g></g><g fill="#07435a" fill-opacity="1"><g transform="translate(265.53848, 123.741555)"><g><path d="M 60.15625 -14.953125 L 28.5625 -14.953125 L 23.5 0 L 1.921875 0 L 32.546875 -84.625 L 56.421875 -84.625 L 87.03125 0 L 65.21875 0 Z M 54.84375 -30.859375 L 44.359375 -61.84375 L 34 -30.859375 Z M 54.84375 -30.859375 "/></g></g></g><g fill="#07435a" fill-opacity="1"><g transform="translate(354.358449, 123.741555)"><g><path d="M 56.53125 0 L 28.09375 -37.375 L 28.09375 0 L 7.46875 0 L 7.46875 -84.625 L 28.09375 -84.625 L 28.09375 -47.5 L 56.296875 -84.625 L 80.53125 -84.625 L 47.734375 -43.15625 L 81.734375 0 Z M 56.53125 0 "/></g></g></g></g></g></svg>